<?xml version="1.0" encoding="UTF-8"?>
<!DOCTYPE svg PUBLIC "-//W3C//DTD SVG 1.1//EN" "http://www.w3.org/Graphics/SVG/1.1/DTD/svg11.dtd">
<svg xmlns="http://www.w3.org/2000/svg">
	<symbol id="#google-play" viewBox="0 0 40 52" fill="none">
		<path d="M26.9009 19.5205L9.85571 10.395C8.96993 9.92082 8.00946 9.89658 7.17816 10.1997L21.6999 24.7214L26.9009 19.5205Z" fill="#01FFC2"/>
		<path d="M33.2581 22.9231L28.3482 20.2946L22.8112 25.8315L28.3482 31.3685L33.258 28.7399C35.5806 27.4965 35.5806 24.1665 33.2581 22.9231Z" fill="#01FFC2"/>
		<path d="M5.84908 11.0908C5.32827 11.6632 5 12.4274 5 13.3029V38.3601C5 39.2357 5.32827 39.9999 5.84901 40.5723L20.5898 25.8315L5.84908 11.0908Z" fill="#01FFC2"/>
		<path d="M7.17816 41.4647C8.0094 41.7677 8.96993 41.7436 9.85571 41.2693L26.9009 32.1438L21.7 26.9429L7.17816 41.4647Z" fill="#01FFC2"/>
	</symbol>

	<symbol id="search" viewBox="0 0 24 24" fill="none">
		<path d="M17 17L21 21M3 11C3 13.1217 3.84285 15.1566 5.34315 16.6569C6.84344 18.1571 8.87827 19 11 19C13.1217 19 15.1566 18.1571 16.6569 16.6569C18.1571 15.1566 19 13.1217 19 11C19 8.87827 18.1571 6.84344 16.6569 5.34315C15.1566 3.84285 13.1217 3 11 3C8.87827 3 6.84344 3.84285 5.34315 5.34315C3.84285 6.84344 3 8.87827 3 11Z" stroke="#0064D8" stroke-width="2" stroke-linecap="round" stroke-linejoin="round"/>
	</symbol>

	<symbol id="favorites" viewBox="0 0 24 24">
		<path d="M17.1875 2.625C15.3041 2.625 13.6325 3.36844 12.5 4.64625C11.3675 3.36844 9.69594 2.625 7.8125 2.625C6.17208 2.62698 4.59942 3.27952 3.43947 4.43947C2.27952 5.59942 1.62698 7.17208 1.625 8.8125C1.625 15.5944 11.5447 21.0131 11.9666 21.2409C12.1305 21.3292 12.3138 21.3754 12.5 21.3754C12.6862 21.3754 12.8695 21.3292 13.0334 21.2409C13.4553 21.0131 23.375 15.5944 23.375 8.8125C23.373 7.17208 22.7205 5.59942 21.5605 4.43947C20.4006 3.27952 18.8279 2.62698 17.1875 2.625ZM16.6728 15.9713C15.3671 17.0792 13.9714 18.0764 12.5 18.9525C11.0286 18.0764 9.63287 17.0792 8.32719 15.9713C6.29562 14.2284 3.875 11.5706 3.875 8.8125C3.875 7.76821 4.28984 6.76669 5.02827 6.02827C5.76669 5.28984 6.76821 4.875 7.8125 4.875C9.48125 4.875 10.8781 5.75625 11.4584 7.17562C11.5429 7.38254 11.6871 7.55961 11.8726 7.68425C12.0581 7.80889 12.2765 7.87545 12.5 7.87545C12.7235 7.87545 12.9419 7.80889 13.1274 7.68425C13.3129 7.55961 13.4571 7.38254 13.5416 7.17562C14.1219 5.75625 15.5188 4.875 17.1875 4.875C18.2318 4.875 19.2333 5.28984 19.9717 6.02827C20.7102 6.76669 21.125 7.76821 21.125 8.8125C21.125 11.5706 18.7044 14.2284 16.6728 15.9713Z" fill="#212328"/>
	</symbol>

	<symbol id="cart" viewBox="0 0 24 24" fill="none">
		<path d="M19.5 19C19.8978 19 20.2794 19.158 20.5607 19.4393C20.842 19.7206 21 20.1022 21 20.5C21 20.8978 20.842 21.2794 20.5607 21.5607C20.2794 21.842 19.8978 22 19.5 22C19.1022 22 18.7206 21.842 18.4393 21.5607C18.158 21.2794 18 20.8978 18 20.5C18 20.1022 18.158 19.7206 18.4393 19.4393C18.7206 19.158 19.1022 19 19.5 19ZM19.5 19H5.23C3.446 19 2.5 18.219 2.5 17C2.5 15.781 3.446 15 5.23 15H20M5 4H22L20 15M5 4L7 15H20M5 4C4.833 3.333 4 2 2 2M9.5 22C9.89782 22 10.2794 21.842 10.5607 21.5607C10.842 21.2794 11 20.8978 11 20.5C11 20.1022 10.842 19.7206 10.5607 19.4393C10.2794 19.158 9.89782 19 9.5 19C9.10218 19 8.72064 19.158 8.43934 19.4393C8.15804 19.7206 8 20.1022 8 20.5C8 20.8978 8.15804 21.2794 8.43934 21.5607C8.72064 21.842 9.10218 22 9.5 22Z" stroke="#212328" stroke-width="2" stroke-linecap="round" stroke-linejoin="round"/>
	</symbol>

    <symbol id="avatar" viewBox="0 0 24 24">
		<path d="M4.271 18.346C4.271 18.346 6.5 15.5 12 15.5C17.5 15.5 19.73 18.346 19.73 18.346M12 2C6.477 2 2 6.477 2 12C2 17.523 6.477 22 12 22C17.523 22 22 17.523 22 12C22 6.477 17.523 2 12 2ZM12 12C12.7956 12 13.5587 11.6839 14.1213 11.1213C14.6839 10.5587 15 9.79565 15 9C15 8.20435 14.6839 7.44129 14.1213 6.87868C13.5587 6.31607 12.7956 6 12 6C11.2043 6 10.4413 6.31607 9.87868 6.87868C9.31607 7.44129 9 8.20435 9 9C9 9.79565 9.31607 10.5587 9.87868 11.1213C10.4413 11.6839 11.2043 12 12 12Z" stroke="#212328" stroke-width="2" stroke-linecap="round" stroke-linejoin="round"/>
	</symbol>

	<symbol id="marker-blue" viewBox="0 0 24 24">
		<path d="M12 5.625C11.1842 5.625 10.3866 5.86693 9.70827 6.32019C9.02992 6.77345 8.50121 7.41769 8.189 8.17143C7.87679 8.92518 7.7951 9.75458 7.95426 10.5547C8.11343 11.3549 8.50629 12.0899 9.08318 12.6668C9.66008 13.2437 10.3951 13.6366 11.1953 13.7957C11.9954 13.9549 12.8248 13.8732 13.5786 13.561C14.3323 13.2488 14.9766 12.7201 15.4298 12.0417C15.8831 11.3634 16.125 10.5658 16.125 9.75C16.1238 8.65636 15.6888 7.60787 14.9154 6.83455C14.1421 6.06124 13.0936 5.62624 12 5.625ZM12 11.625C11.6292 11.625 11.2666 11.515 10.9583 11.309C10.65 11.103 10.4096 10.8101 10.2677 10.4675C10.1258 10.1249 10.0887 9.74792 10.161 9.3842C10.2334 9.02049 10.412 8.6864 10.6742 8.42417C10.9364 8.16195 11.2705 7.98337 11.6342 7.91103C11.9979 7.83868 12.3749 7.87581 12.7175 8.01772C13.0601 8.15964 13.353 8.39996 13.559 8.70831C13.765 9.01665 13.875 9.37916 13.875 9.75C13.875 10.2473 13.6775 10.7242 13.3258 11.0758C12.9742 11.4275 12.4973 11.625 12 11.625ZM12 1.125C9.71327 1.12748 7.52091 2.03698 5.90394 3.65394C4.28698 5.27091 3.37748 7.46327 3.375 9.75C3.375 17.0025 11.0288 22.4437 11.355 22.6716C11.5441 22.8039 11.7692 22.8748 12 22.8748C12.2308 22.8748 12.4559 22.8039 12.645 22.6716C14.0946 21.6032 15.4209 20.3769 16.5994 19.0153C19.2328 15.9909 20.625 12.7847 20.625 9.75C20.6225 7.46327 19.713 5.27091 18.0961 3.65394C16.4791 2.03698 14.2867 1.12748 12 1.125ZM14.9344 17.5041C14.0405 18.5308 13.0586 19.4776 12 20.3334C10.9414 19.4776 9.9595 18.5308 9.06562 17.5041C7.5 15.6909 5.625 12.8728 5.625 9.75C5.625 8.05924 6.29665 6.43774 7.49219 5.24219C8.68774 4.04665 10.3092 3.375 12 3.375C13.6908 3.375 15.3123 4.04665 16.5078 5.24219C17.7034 6.43774 18.375 8.05924 18.375 9.75C18.375 12.8728 16.5 15.6909 14.9344 17.5041Z" fill="#0064D8"/>
	</symbol>

	<symbol id="vk" viewBox="0 0 24 24">
		<path d="M22.003 18.381H19.722C18.859 18.381 18.599 17.682 17.052 16.134C15.7 14.831 15.129 14.669 14.787 14.669C14.314 14.669 14.185 14.799 14.185 15.45V17.502C14.185 18.057 14.005 18.382 12.555 18.382C11.1483 18.2875 9.78416 17.8602 8.57497 17.1352C7.36578 16.4102 6.34612 15.4083 5.6 14.212C3.82839 12.0071 2.59571 9.41911 2 6.65403C2 6.31203 2.13 6.00203 2.782 6.00203H5.062C5.648 6.00203 5.859 6.26303 6.089 6.86603C7.196 10.124 9.085 12.958 9.852 12.958C10.146 12.958 10.274 12.828 10.274 12.095V8.73903C10.177 7.20803 9.364 7.07903 9.364 6.52503C9.37428 6.37887 9.44114 6.24248 9.55037 6.14482C9.65961 6.04717 9.80261 5.99594 9.949 6.00203H13.533C14.023 6.00203 14.185 6.24603 14.185 6.83203V11.362C14.185 11.851 14.395 12.013 14.543 12.013C14.837 12.013 15.063 11.851 15.602 11.313C16.7574 9.90401 17.7013 8.3342 18.404 6.65303C18.4759 6.45118 18.6119 6.2784 18.7912 6.16105C18.9705 6.04369 19.1832 5.98819 19.397 6.00303H21.678C22.362 6.00303 22.507 6.34503 22.362 6.83303C21.5324 8.69144 20.5058 10.4555 19.3 12.095C19.054 12.47 18.956 12.665 19.3 13.105C19.526 13.447 20.326 14.115 20.863 14.75C21.645 15.53 22.294 16.432 22.785 17.42C22.981 18.056 22.654 18.381 22.003 18.381Z" fill="#0077FF"/>
	</symbol>

	<symbol id="ok" viewBox="0 0 24 24">
		<path d="M18.33 12.74C18.05 12.17 17.26 11.69 16.21 12.5C14.7801 13.64 12.5001 13.64 12.5001 13.64C12.5001 13.64 10.2201 13.64 8.79005 12.5C7.74005 11.69 6.95005 12.17 6.67005 12.74C6.17005 13.74 6.73005 14.23 8.00005 15.04C9.09005 15.74 10.5801 16 11.5401 16.1L10.7401 16.9C9.60005 18.03 8.50005 19.12 7.75005 19.88C7.30005 20.34 7.30005 21.07 7.75005 21.5L7.89005 21.66C8.34005 22.11 9.08005 22.11 9.53005 21.66L12.5001 18.68C13.6501 19.81 14.7401 20.9 15.5 21.66C15.9501 22.11 16.68 22.11 17.14 21.66L17.2701 21.5C17.7301 21.07 17.7301 20.34 17.2701 19.88L14.2901 16.9L13.5001 16.09C14.4501 16 15.92 15.73 17 15.04C18.2701 14.23 18.83 13.74 18.33 12.74ZM12.5001 4.57C13.8801 4.57 15 5.69 15 7.06C15 8.44 13.8801 9.55 12.5001 9.55C11.1201 9.55 10.0001 8.44 10.0001 7.06C10.0001 5.69 11.1201 4.57 12.5001 4.57ZM12.5001 12.12C15.3001 12.12 17.56 9.86 17.56 7.06C17.56 5.718 17.0269 4.43097 16.078 3.48204C15.1291 2.53311 13.842 2 12.5001 2C11.1581 2 9.87102 2.53311 8.92209 3.48204C7.97316 4.43097 7.44005 5.718 7.44005 7.06C7.44005 9.86 9.70005 12.12 12.5001 12.12Z" fill="#F98D2A"/>
	</symbol>

	<symbol id="tg" viewBox="0 0 24 24">
		<path d="M21.1656 3.71682L3.43558 10.5538C2.22558 11.0398 2.23258 11.7148 3.21358 12.0158L7.76558 13.4358L18.2976 6.79082C18.7956 6.48782 19.2506 6.65082 18.8766 6.98282L10.3436 14.6838H10.3416L10.3436 14.6848L10.0296 19.3768C10.4896 19.3768 10.6926 19.1658 10.9506 18.9168L13.1616 16.7668L17.7606 20.1638C18.6086 20.6308 19.2176 20.3908 19.4286 19.3788L22.4476 5.15082C22.7566 3.91182 21.9746 3.35082 21.1656 3.71682Z" fill="#29AAEC"/>
	</symbol>

	<symbol id="wa" viewBox="0 0 24 24">
		<path d="M12.501 2C18.024 2 22.501 6.477 22.501 12C22.501 17.523 18.024 22 12.501 22C10.7338 22.0029 8.99765 21.5352 7.47099 20.645L2.50499 22L3.85699 17.032C2.96608 15.5049 2.49804 13.768 2.50099 12C2.50099 6.477 6.97799 2 12.501 2ZM9.09299 7.3L8.89299 7.308C8.76351 7.31589 8.63697 7.3499 8.52099 7.408C8.41251 7.46943 8.31349 7.54622 8.22699 7.636C8.10699 7.749 8.03899 7.847 7.96599 7.942C7.59611 8.4229 7.39696 9.01331 7.39999 9.62C7.40199 10.11 7.52999 10.587 7.72999 11.033C8.13899 11.935 8.81199 12.89 9.69999 13.775C9.91399 13.988 10.124 14.202 10.35 14.401C11.4534 15.3725 12.7682 16.073 14.19 16.447L14.758 16.534C14.943 16.544 15.128 16.53 15.314 16.521C15.6052 16.506 15.8896 16.4271 16.147 16.29C16.2779 16.2225 16.4057 16.1491 16.53 16.07C16.53 16.07 16.573 16.042 16.655 15.98C16.79 15.88 16.873 15.809 16.985 15.692C17.068 15.606 17.14 15.505 17.195 15.39C17.273 15.227 17.351 14.916 17.383 14.657C17.407 14.459 17.4 14.351 17.397 14.284C17.393 14.177 17.304 14.066 17.207 14.019L16.625 13.758C16.625 13.758 15.755 13.379 15.223 13.137C15.1673 13.1127 15.1077 13.0988 15.047 13.096C14.9786 13.089 14.9094 13.0967 14.8442 13.1186C14.779 13.1405 14.7193 13.1761 14.669 13.223C14.664 13.221 14.597 13.278 13.874 14.154C13.8325 14.2098 13.7753 14.2519 13.7098 14.2751C13.6443 14.2982 13.5733 14.3013 13.506 14.284C13.4408 14.2665 13.377 14.2445 13.315 14.218C13.191 14.166 13.148 14.146 13.063 14.11C12.4891 13.8595 11.9577 13.5211 11.488 13.107C11.362 12.997 11.245 12.877 11.125 12.761C10.7316 12.3842 10.3887 11.958 10.105 11.493L10.046 11.398C10.0036 11.3342 9.96935 11.2653 9.94399 11.193C9.90599 11.046 10.005 10.928 10.005 10.928C10.005 10.928 10.248 10.662 10.361 10.518C10.471 10.378 10.564 10.242 10.624 10.145C10.742 9.955 10.779 9.76 10.717 9.609C10.437 8.925 10.147 8.244 9.84899 7.568C9.78999 7.434 9.61499 7.338 9.45599 7.319C9.40199 7.313 9.34799 7.307 9.29399 7.303C9.1597 7.29633 9.02513 7.29766 8.89099 7.307L9.09199 7.299L9.09299 7.3Z" fill="#25D366"/>
	</symbol>

	<symbol id="condition-1" viewBox="0 0 40 40" fill="none">
		<path d="M27.454 33.3335H6.83398C6.56877 33.3335 6.31441 33.2282 6.12688 33.0406C5.93934 32.8531 5.83398 32.5987 5.83398 32.3335V16.0002C5.83398 15.735 5.93934 15.4806 6.12688 15.2931C6.31441 15.1055 6.56877 15.0002 6.83398 15.0002H11.4473C12.0229 15.0002 12.5888 14.8511 13.0897 14.5675C13.5906 14.2839 14.0095 13.8754 14.3057 13.3818L18.8223 5.85351C19.163 5.28493 19.6996 4.8604 20.3313 4.65976C20.963 4.45912 21.6463 4.4962 22.2526 4.76403C22.8589 5.03185 23.3464 5.51197 23.6235 6.11407C23.9006 6.71618 23.9482 7.39878 23.7573 8.03351L22.054 13.7135C22.0093 13.8627 22.0002 14.0202 22.0272 14.1736C22.0542 14.327 22.1166 14.4719 22.2095 14.5968C22.3024 14.7218 22.4232 14.8233 22.5623 14.8934C22.7014 14.9634 22.8549 15 23.0107 15.0002H30.6357C31.1482 15.0001 31.6539 15.1182 32.1134 15.3453C32.5729 15.5724 32.9738 15.9025 33.285 16.3098C33.5962 16.7171 33.8093 17.1906 33.9077 17.6937C34.0061 18.1967 33.9871 18.7157 33.8523 19.2102L30.669 30.8768C30.4768 31.582 30.0581 32.2044 29.4775 32.6483C28.8969 33.0922 28.1848 33.3329 27.454 33.3335Z" stroke="#0064D8" stroke-width="2" stroke-linecap="round"/>
		<path d="M11.666 33.3333V15" stroke="#0064D8" stroke-width="2" stroke-linecap="round" stroke-linejoin="round"/>
	</symbol>

	<symbol id="condition-2" viewBox="0 0 40 40" fill="none">
		<path d="M19.3456 3.9033C19.5275 3.74524 19.7604 3.6582 20.0014 3.6582C20.2424 3.6582 20.4753 3.74524 20.6573 3.9033L23.9039 6.7233C24.005 6.81122 24.1228 6.87791 24.2502 6.91943C24.3776 6.96094 24.5121 6.97643 24.6456 6.96496L28.9322 6.59163C29.1722 6.57102 29.4116 6.63773 29.6064 6.7795C29.8011 6.92127 29.9381 7.12857 29.9923 7.3633L30.9623 11.5533C30.9922 11.6842 31.0482 11.8078 31.127 11.9166C31.2057 12.0254 31.3056 12.1173 31.4206 12.1866L35.1073 14.4033C35.3135 14.5275 35.4681 14.722 35.5425 14.951C35.6169 15.18 35.6062 15.4282 35.5123 15.65L33.8323 19.61C33.78 19.7333 33.7531 19.866 33.7531 20C33.7531 20.134 33.78 20.2666 33.8323 20.39L35.5123 24.35C35.6066 24.5719 35.6176 24.8205 35.5432 25.0499C35.4688 25.2793 35.3139 25.474 35.1073 25.5983L31.4206 27.815C31.3057 27.8842 31.206 27.9757 31.1273 28.0842C31.0485 28.1928 30.9924 28.316 30.9623 28.4466L29.9923 32.6366C29.9381 32.8714 29.8011 33.0787 29.6064 33.2204C29.4116 33.3622 29.1722 33.4289 28.9322 33.4083L24.6456 33.035C24.5122 33.0233 24.3778 33.0385 24.2504 33.0797C24.123 33.1209 24.0052 33.1873 23.9039 33.275L20.6556 36.0966C20.4736 36.2547 20.2408 36.3417 19.9998 36.3417C19.7587 36.3417 19.5259 36.2547 19.3439 36.0966L16.0973 33.275C15.996 33.1873 15.8782 33.1209 15.7508 33.0797C15.6234 33.0385 15.489 33.0233 15.3556 33.035L11.0689 33.4083C10.8289 33.4289 10.5895 33.3622 10.3948 33.2204C10.2001 33.0787 10.063 32.8714 10.0089 32.6366L9.03892 28.4466C9.00897 28.3157 8.95295 28.1921 8.87421 28.0833C8.79546 27.9745 8.6956 27.8827 8.58058 27.8133L4.89392 25.5966C4.68762 25.4724 4.53307 25.2779 4.45867 25.0489C4.38427 24.8199 4.39501 24.5717 4.48892 24.35L6.16892 20.39C6.22117 20.2666 6.2481 20.134 6.2481 20C6.2481 19.866 6.22117 19.7333 6.16892 19.61L4.48892 15.65C4.39455 15.428 4.38356 15.1795 4.45799 14.9501C4.53241 14.7207 4.68723 14.5259 4.89392 14.4016L8.58058 12.185C8.69542 12.1158 8.79518 12.0242 8.87392 11.9157C8.95265 11.8072 9.00877 11.6839 9.03892 11.5533L10.0089 7.3633C10.063 7.12857 10.2001 6.92127 10.3948 6.7795C10.5895 6.63773 10.8289 6.57102 11.0689 6.59163L15.3556 6.96496C15.4891 6.97643 15.6235 6.96094 15.751 6.91943C15.8784 6.87791 15.9961 6.81122 16.0973 6.7233L19.3456 3.9033Z" stroke="#0064D8" stroke-width="2"/>
		<path d="M15 21.25L18.3333 24.5833L26.6667 16.25" stroke="#0064D8" stroke-width="2" stroke-linecap="round" stroke-linejoin="round"/>
	</symbol>

	<symbol id="condition-3" viewBox="0 0 40 40" fill="none">
		<path d="M4.49219 11.9751L19.4922 18.6418L20.5089 16.3584L5.50885 9.69177L4.49219 11.9751ZM21.2505 35.8334V17.5001H18.7505V35.8334H21.2505ZM20.5089 18.6418L35.5089 11.9751L34.4922 9.69177L19.4922 16.3584L20.5089 18.6418Z" fill="#0064D8"/>
		<path d="M5 28.5167V11.4833C5.00005 11.29 5.05611 11.1009 5.16142 10.9388C5.26672 10.7767 5.41674 10.6486 5.59333 10.57L19.5933 4.34668C19.7213 4.2897 19.8599 4.26025 20 4.26025C20.1401 4.26025 20.2787 4.2897 20.4067 4.34668L34.4067 10.57C34.5833 10.6486 34.7333 10.7767 34.8386 10.9388C34.9439 11.1009 35 11.29 35 11.4833V28.5167C35 28.71 34.9439 28.8991 34.8386 29.0612C34.7333 29.2233 34.5833 29.3514 34.4067 29.43L20.4067 35.6533C20.2787 35.7103 20.1401 35.7398 20 35.7398C19.8599 35.7398 19.7213 35.7103 19.5933 35.6533L5.59333 29.43C5.41674 29.3514 5.26672 29.2233 5.16142 29.0612C5.05611 28.8991 5.00005 28.71 5 28.5167Z" stroke="#0064D8" stroke-width="2" stroke-linecap="round" stroke-linejoin="round"/>
		<path d="M12.5 7.5L26.9067 13.9033C27.0833 13.9819 27.2333 14.11 27.3386 14.2721C27.4439 14.4342 27.5 14.6234 27.5 14.8167V20.8333" stroke="#0064D8" stroke-width="2" stroke-linecap="round" stroke-linejoin="round"/>
	</symbol>

	<symbol id="condition-4" viewBox="0 0 40 40" fill="none">
		<path d="M18.3333 31.6667V35M18.3333 20V26.6667M26.6667 20V26.6667H23.3333M35 20H13.3333M8.33333 20H5M5 8.33333L20 5L35 8.33333" stroke="#0064D8" stroke-width="2" stroke-linecap="round" stroke-linejoin="round"/>
		<path d="M35 14.3334V34C35 34.2653 34.8946 34.5196 34.7071 34.7071C34.5196 34.8947 34.2652 35 34 35H6C5.73478 35 5.48043 34.8947 5.29289 34.7071C5.10536 34.5196 5 34.2653 5 34V14.3334C5 14.0682 5.10536 13.8138 5.29289 13.6263C5.48043 13.4387 5.73478 13.3334 6 13.3334H34C34.2652 13.3334 34.5196 13.4387 34.7071 13.6263C34.8946 13.8138 35 14.0682 35 14.3334Z" stroke="#0064D8" stroke-width="2" stroke-linecap="round" stroke-linejoin="round"/>
	</symbol>

	<symbol id="condition-5" viewBox="0 0 40 40" fill="none">
		<path d="M13.3333 31.6667C14.2174 31.6667 15.0652 31.3155 15.6904 30.6904C16.3155 30.0652 16.6667 29.2174 16.6667 28.3333C16.6667 27.4493 16.3155 26.6014 15.6904 25.9763C15.0652 25.3512 14.2174 25 13.3333 25C12.4493 25 11.6014 25.3512 10.9763 25.9763C10.3512 26.6014 10 27.4493 10 28.3333C10 29.2174 10.3512 30.0652 10.9763 30.6904C11.6014 31.3155 12.4493 31.6667 13.3333 31.6667ZM30 31.6667C30.8841 31.6667 31.7319 31.3155 32.357 30.6904C32.9821 30.0652 33.3333 29.2174 33.3333 28.3333C33.3333 27.4493 32.9821 26.6014 32.357 25.9763C31.7319 25.3512 30.8841 25 30 25C29.1159 25 28.2681 25.3512 27.643 25.9763C27.0179 26.6014 26.6667 27.4493 26.6667 28.3333C26.6667 29.2174 27.0179 30.0652 27.643 30.6904C28.2681 31.3155 29.1159 31.6667 30 31.6667Z" stroke="#0064D8" stroke-width="2" stroke-miterlimit="1.5" stroke-linecap="round" stroke-linejoin="round"/>
		<path d="M16.7494 28.3333H24.9994V11C24.9994 10.7348 24.894 10.4804 24.7065 10.2929C24.5189 10.1054 24.2646 10 23.9994 10H1.66602M9.41602 28.3333H5.99935C5.86803 28.3333 5.73799 28.3075 5.61667 28.2572C5.49534 28.207 5.3851 28.1333 5.29224 28.0404C5.19938 27.9476 5.12572 27.8373 5.07547 27.716C5.02521 27.5947 4.99935 27.4647 4.99935 27.3333V19.1667" stroke="#0064D8" stroke-width="2" stroke-linecap="round"/>
		<path d="M3.33398 15H10.0007" stroke="#0064D8" stroke-width="2" stroke-linecap="round" stroke-linejoin="round"/>
		<path d="M25 15H34.35C34.5433 15 34.7324 15.0561 34.8945 15.1614C35.0566 15.2667 35.1847 15.4167 35.2633 15.5933L38.2467 22.3067C38.3035 22.4341 38.333 22.5721 38.3333 22.7117V27.3333C38.3333 27.4647 38.3075 27.5947 38.2572 27.716C38.207 27.8373 38.1333 27.9476 38.0404 28.0404C37.9476 28.1333 37.8373 28.207 37.716 28.2572C37.5947 28.3075 37.4647 28.3333 37.3333 28.3333H34.1667M25 28.3333H26.6667" stroke="#0064D8" stroke-width="2" stroke-linecap="round"/>
	</symbol>

	<symbol id="password" viewBox="0 0 24 24" fill="none">
		<path d="M19.5 16L17.025 12.604M12 17.5V14M4.5 16L6.969 12.612M3 8C6.6 16 17.4 16 21 8" stroke="#8285A5" stroke-width="2" stroke-linecap="round" stroke-linejoin="round"/>
	</symbol>

	<symbol id="select-arrow-dropdown" viewBox="0 0 24 24" fill="none">
		<path d="M6 10L12 16L18 10" stroke="#212328" stroke-width="2" stroke-linecap="round" stroke-linejoin="round"/>
	</symbol>

	<symbol id="map-button-build-route-yandex-maps" viewBox="0 0 114 20" fill="none">
		<mask id="mask0_3_13842" style="mask-type:luminance" maskUnits="userSpaceOnUse" x="1" y="2" width="113" height="16">
			<path d="M113.252 2H1.25195V18H113.252V2Z" fill="white"/>
		</mask>
		<g mask="url(#mask0_3_13842)">
			<path fill-rule="evenodd" clip-rule="evenodd" d="M16.9151 9.82985C16.9151 8.2799 16.4554 6.76477 15.5941 5.47611C14.7329 4.18745 13.5089 3.18316 12.0768 2.59028C10.6447 1.9974 9.06898 1.84257 7.54889 2.14536C6.02881 2.44815 4.63267 3.19497 3.53709 4.29135C2.44151 5.38772 1.6957 6.7844 1.39401 8.30471C1.09232 9.82501 1.24829 11.4006 1.84221 12.8323C2.43613 14.264 3.4413 15.4873 4.73058 16.3476C6.01986 17.2079 7.53533 17.6665 9.08528 17.6653C10.114 17.6653 11.1326 17.4626 12.0829 17.0688C13.0332 16.675 13.8966 16.0977 14.6238 15.37C15.3509 14.6424 15.9275 13.7786 16.3207 12.828C16.7138 11.8773 16.9158 10.8586 16.9151 9.82985Z" fill="#FC3F1D"/>
			<path fill-rule="evenodd" clip-rule="evenodd" d="M10.1289 6.43752H9.39131C8.0523 6.43752 7.37145 7.12405 7.37145 8.10561C7.37145 9.24036 7.85939 9.73398 8.83528 10.4205L9.6523 10.9879L7.32039 14.517H5.56152L7.67783 11.385C6.47499 10.5056 5.78847 9.68292 5.78847 8.25313C5.78847 6.45455 7.02535 5.25171 9.40833 5.25171H11.7573V14.517H10.1289V6.43752Z" fill="white"/>
			<path d="M35.2488 2.00073L19.2488 8.50299L26.2503 11.0033L28.7506 18.0007L35.2488 2.00073Z" fill="url(#paint0_linear_3_13842)"/>
			<path d="M35.2508 2.00073L26.0027 11.2529L28.7525 18.0007L35.2508 2.00073Z" fill="#FFCC00"/>
			<path d="M25.7511 11.5017L28.7506 17.9999L27.748 9.50069L19.2488 8.5022L25.7511 11.5017Z" fill="#ECA704"/>
			<path d="M39.2488 4.00073V15.7792H41.3862V10.6596H45.3717V15.7792H47.502V4.00073H45.3717V9.0661H41.3862V4.00073H39.2488ZM55.8963 9.96797C55.8963 7.89978 54.8029 7.11997 52.5809 7.11997C51.1912 7.11997 50.0979 7.54039 49.463 7.89978V9.57467C50.0273 9.16782 51.2618 8.72705 52.334 8.72705C53.3427 8.72705 53.8012 9.0661 53.8012 9.98153V10.4562H53.4626C50.2531 10.4562 48.8281 11.4733 48.8281 13.2025C48.8281 14.9316 49.9215 15.9013 51.5439 15.9013C52.7784 15.9013 53.3074 15.508 53.7095 15.1011H53.8012C53.8153 15.3249 53.8859 15.6097 53.9564 15.7792H56.0021C55.9315 15.0876 55.8963 14.3891 55.8963 13.6975V9.96797ZM53.8012 13.7449C53.5332 14.1179 53.0394 14.423 52.2987 14.423C51.417 14.423 50.9796 13.9484 50.9796 13.2228C50.9796 12.2531 51.6991 11.9005 53.4979 11.9005H53.8012V13.7449ZM61.2573 15.7792C63.3382 15.7792 64.5727 14.9316 64.5727 13.3042C64.5727 12.1853 63.8673 11.5412 62.6893 11.3377C63.6416 11.0868 64.2412 10.4426 64.2412 9.42549C64.2412 7.96759 63.2324 7.25559 61.2926 7.25559H57.5892V15.7792H61.2573ZM61.0457 8.7474C61.8075 8.7474 62.2308 9.0661 62.2308 9.73063C62.2308 10.3206 61.7723 10.68 60.9752 10.68H59.6349V8.7474H61.0457ZM61.081 12.1514C61.9839 12.1514 62.4565 12.4565 62.4565 13.1685C62.4565 13.9687 61.9274 14.2874 61.081 14.2874H59.6349V12.1514H61.081ZM65.9835 7.25559V15.7792H67.8528L71.0624 10.5104V15.7792H73.0939V7.25559H71.2246L68.0151 12.5244V7.25559H65.9835ZM74.8574 7.25559V15.7792H76.9525V8.84911H80.1973V7.25559H74.8574ZM87.5335 9.96797C87.5335 7.89978 86.4401 7.11997 84.2181 7.11997C82.8285 7.11997 81.7351 7.54039 81.1002 7.89978V9.57467C81.6646 9.16782 82.899 8.72705 83.9712 8.72705C84.9799 8.72705 85.4385 9.0661 85.4385 9.98153V10.4562H85.0999C81.8903 10.4562 80.4654 11.4733 80.4654 13.2025C80.4654 14.9316 81.5588 15.9013 83.1812 15.9013C84.4156 15.9013 84.9447 15.508 85.3468 15.1011H85.4385C85.4526 15.3249 85.5231 15.6097 85.5936 15.7792H87.6393C87.5688 15.0876 87.5335 14.3891 87.5335 13.6975V9.96797ZM85.4385 13.7449C85.1704 14.1179 84.6766 14.423 83.936 14.423C83.0542 14.423 82.6169 13.9484 82.6169 13.2228C82.6169 12.2531 83.3364 11.9005 85.1351 11.9005H85.4385V13.7449ZM95.4693 8.84911V7.25559H88.4364V8.84911H90.9053V15.7792H93.0004V8.84911H95.4693ZM99.7369 7.08606C97.4303 7.08606 95.822 8.65924 95.822 11.5276C95.822 14.3756 97.4303 15.9487 99.7369 15.9487C102.051 15.9487 103.652 14.3756 103.652 11.5072C103.652 8.65924 102.051 7.08606 99.7369 7.08606ZM99.7369 14.3552C98.573 14.3552 97.9946 13.494 97.9946 11.5276C97.9946 9.54077 98.573 8.67959 99.7369 8.67959C100.901 8.67959 101.487 9.54077 101.487 11.5072C101.487 13.494 100.901 14.3552 99.7369 14.3552ZM107.003 7.25559H105.063V18.2407H107.165V14.7824C107.694 15.5419 108.47 15.9487 109.366 15.9487C111.412 15.9487 112.822 14.3756 112.822 11.5072C112.822 8.65924 111.447 7.08606 109.472 7.08606C108.484 7.08606 107.673 7.52683 107.109 8.3541L107.003 7.25559ZM108.837 14.3552C107.729 14.3552 107.165 13.494 107.165 11.5276C107.165 9.54077 107.765 8.67959 108.943 8.67959C110.092 8.67959 110.657 9.54077 110.657 11.5072C110.657 13.494 110.057 14.3552 108.837 14.3552Z" fill="#212328"/>
		</g>
		<defs>
			<linearGradient id="paint0_linear_3_13842" x1="19.2489" y1="18.0004" x2="35.2495" y2="1.99975" gradientUnits="userSpaceOnUse">
				<stop stop-color="#FFCC00"/>
				<stop offset="1" stop-color="#FFE992"/>
			</linearGradient>
		</defs>
	</symbol>

	<symbol id="map-button-build-route-google-maps" viewBox="0 0 108 20" fill="none">
		<path d="M4.21289 13.8529C4.71009 14.4703 5.21646 15.2466 5.48146 15.7155C5.80418 16.3251 5.93799 16.7367 6.17806 17.4739C6.31843 17.8777 6.45224 18.0002 6.73297 18.0002C7.03995 18.0002 7.18032 17.7944 7.28789 17.4739C7.51222 16.7823 7.68538 16.2561 7.95956 15.7546C9.01692 13.7748 10.7407 12.368 11.7115 10.4403C11.7115 10.4403 12.3504 9.26283 12.3504 7.61384C12.3504 6.07686 11.7207 5.00879 11.7207 5.00879L4.21683 13.866L4.21289 13.8529Z" fill="#34A853"/>
		<path d="M1.66739 10.232C2.27215 11.5996 3.42528 12.798 4.2124 13.853L8.38411 8.9425C8.38411 8.9425 7.79509 9.70838 6.73117 9.70838C5.54525 9.70838 4.57972 8.77056 4.57972 7.58527C4.57972 6.76989 5.06904 6.20459 5.06904 6.20459C1.99929 6.65787 2.16983 7.3964 1.6582 10.2294L1.66739 10.232Z" fill="#FBBC04"/>
		<path d="M8.43731 2.25659C9.82788 2.70075 11.0086 3.63727 11.717 5.00492L8.38484 8.95156C8.38484 8.95156 8.87416 8.38366 8.87416 7.57089C8.87416 6.36084 7.84566 5.44778 6.73583 5.44778C5.68241 5.44778 5.08289 6.20454 5.08289 6.20454C5.3387 5.62622 7.9821 2.45327 8.44125 2.25789L8.43731 2.25659Z" fill="#4285F4"/>
		<path d="M2.42896 3.99286C3.25805 3.01336 4.71159 2 6.71874 2C7.6882 2 8.42416 2.25529 8.42416 2.25529L5.07891 6.20194C4.85327 6.08042 2.65197 4.37841 2.42896 3.98765V3.99286Z" fill="#1A73E8"/>
		<path d="M1.66814 10.2319C1.66814 10.2319 1.12109 9.15343 1.12109 7.60083C1.12109 6.12897 1.70094 4.83947 2.43295 4.00586L5.08291 6.22015L1.67208 10.2319H1.66814Z" fill="#EA4335"/>
		<path fill-rule="evenodd" clip-rule="evenodd" d="M62.8221 11.8128L66.4196 10.3289C66.2197 9.82847 65.6288 9.48336 64.925 9.48336C64.0256 9.47905 62.7787 10.2685 62.8221 11.8128ZM67.0452 13.2493L68.4181 14.1552C67.975 14.8066 66.9105 15.9282 65.064 15.9282C62.7787 15.9282 61.1277 14.1725 61.1277 11.9336C61.1277 9.5567 62.7917 7.93901 64.8685 7.93901C66.7758 8.00372 67.9619 9.22453 68.4963 10.9328L63.1089 13.1415C63.5216 13.9439 64.1603 14.3537 65.0597 14.3537C65.9547 14.3537 66.5803 13.9137 67.0365 13.2493M58.3036 15.6867H60.0719V3.95303H58.3036V15.6867ZM55.4187 11.9466C55.4187 10.5403 54.4716 9.50925 53.2681 9.50925C52.0516 9.50925 51.0262 10.5403 51.0262 11.9466C51.0262 13.3399 52.0472 14.3537 53.2681 14.3537C54.4759 14.3537 55.4187 13.3399 55.4187 11.9466ZM56.9741 8.18059V15.3415C56.9741 18.2922 55.2232 19.5044 53.1508 19.5044C51.2 19.5044 50.0269 18.2016 49.5838 17.1447L51.1218 16.5106C51.3955 17.162 52.069 17.9342 53.1508 17.9342C55.1276 17.7111 55.3014 16.4416 55.3014 15.0137H55.2363C54.8409 15.4968 54.0762 15.9239 53.116 15.9239C51.1044 15.9239 49.2579 14.1854 49.2579 11.9422C49.2579 9.68611 51.1001 7.93038 53.116 7.93038C54.0762 7.93038 54.8409 8.35314 55.2363 8.82335H55.2971V8.17196C55.2971 8.16764 56.9741 8.16764 56.9741 8.16764V8.18059ZM37.6836 11.9336C37.6836 10.4971 36.6496 9.51356 35.4548 9.51356C34.2556 9.51356 33.2259 10.4971 33.2259 11.9336C33.2259 13.3572 34.26 14.3537 35.4548 14.3537C36.6496 14.3537 37.6836 13.3529 37.6836 11.9336ZM39.4215 11.9336C39.4215 14.2329 37.6402 15.9282 35.4548 15.9282C33.2694 15.9282 31.488 14.2329 31.488 11.9336C31.488 9.61709 33.2694 7.93901 35.4548 7.93901C37.6402 7.93901 39.4215 9.61709 39.4215 11.9336ZM46.5903 11.9336C46.5903 10.4971 45.5562 9.51356 44.3614 9.51356C43.1623 9.51356 42.1326 10.4971 42.1326 11.9336C42.1326 13.3572 43.1666 14.3537 44.3614 14.3537C45.5562 14.3537 46.5903 13.3529 46.5903 11.9336ZM48.3282 11.9336C48.3282 14.2329 46.5468 15.9282 44.3614 15.9282C42.176 15.9282 40.3947 14.2329 40.3947 11.9336C40.3947 9.61709 42.176 7.93901 44.3614 7.93901C46.5468 7.93901 48.3282 9.61709 48.3282 11.9336ZM24.6929 15.9282C21.2519 15.9282 18.3496 13.1415 18.3496 9.71631C18.3496 6.29544 21.2475 3.50439 24.6929 3.50439C26.6002 3.50439 27.9558 4.24637 28.9768 5.21698L27.7733 6.41192C27.0434 5.73033 26.0528 5.19973 24.6929 5.19973C22.1773 5.19973 20.2178 7.21429 20.2178 9.68611C20.2178 12.1838 22.186 14.1725 24.6929 14.1725C26.3222 14.1725 27.2519 13.5211 27.8472 12.9301C28.3338 12.447 28.6553 11.7481 28.7769 10.7948H24.6929V9.09943H30.4279C30.4887 9.4014 30.5192 9.76376 30.5192 10.1563C30.5192 11.4289 30.1672 13.0034 29.042 14.1207C27.9471 15.2639 26.5437 15.8721 24.6972 15.8721" fill="#212328"/>
		<path d="M72.6475 15.5976V5.1665H74.0042L77.6528 11.5198H77.7078L81.3564 5.1665H82.7132V15.5976H81.3569L81.4119 7.66051H81.3569L78.075 13.3767H77.2866L74.0047 7.66051H73.9497C74.0498 10.3006 74.0047 12.958 74.0047 15.5976H72.6475ZM86.9485 15.7796C86.1785 15.7796 85.5551 15.5612 85.0417 15.1243C84.5283 14.6874 84.2717 14.1048 84.2717 13.3944C84.2717 12.6117 84.5833 12.0109 85.1884 11.574C85.7934 11.1371 86.5452 10.9187 87.4252 10.9187C88.2136 10.9187 88.8737 11.0643 89.3687 11.3556C89.3555 9.84141 88.3016 9.4259 87.4802 9.4259C86.7047 9.46248 86.0318 9.7845 85.7568 10.4635L84.5283 9.93562C84.6934 9.51692 85.0234 9.11599 85.5184 8.75233C86.0135 8.38868 86.6552 8.2062 87.4619 8.2062C88.3786 8.2062 89.1487 8.47927 89.7537 9.00719C90.3588 9.53512 90.6705 10.2997 90.6705 11.2645V15.579H89.387V14.5959C88.7875 15.3423 87.9771 15.7628 86.9485 15.7792V15.7796ZM89.3687 12.4665C88.5785 11.8693 86.9302 11.7947 86.1601 12.4118C85.5551 12.9944 85.4909 13.7754 86.1235 14.2323C87.6526 15.2062 89.4237 13.6898 89.3687 12.4665ZM95.9325 15.7796C95.3825 15.7796 94.8875 15.6704 94.4658 15.4338C94.0441 15.1971 93.714 14.9058 93.494 14.56H93.4207L93.4757 15.543V18.6923H92.1372V8.40688H93.4207V9.38992H93.4757C93.6957 9.04404 94.0074 8.75277 94.4474 8.51611C94.8875 8.27945 95.3825 8.17022 95.9142 8.17022C96.8493 8.17022 97.6377 8.53431 98.316 9.26249C98.9944 9.99066 99.324 10.9009 99.324 11.9749C99.324 13.049 98.994 13.9592 98.316 14.6874C97.656 15.4156 96.8493 15.7796 95.9325 15.7796ZM95.7125 14.5418C96.3359 14.5418 96.8676 14.3051 97.326 13.8318C97.7843 13.3585 98.0044 12.7395 98.0044 11.9567C98.0044 11.1739 97.7843 10.555 97.326 10.0817C96.8676 9.60837 96.3359 9.37171 95.7125 9.37171C95.0708 9.37171 94.5391 9.60837 94.0991 10.0635C93.659 10.5368 93.439 11.1557 93.439 11.9385C93.439 12.7213 93.659 13.3585 94.0991 13.8136C94.5391 14.3233 95.0708 14.5418 95.7125 14.5418ZM103.266 15.7796C102.46 15.7796 101.8 15.5794 101.286 15.1971C100.755 14.8148 100.388 14.3233 100.131 13.7408L101.341 13.2492C101.726 14.1413 102.368 14.5964 103.285 14.5964C103.706 14.5964 104.055 14.5058 104.311 14.3233C104.587 14.1413 104.715 13.9046 104.715 13.5951C104.715 13.1218 104.385 12.8123 103.725 12.6485L102.276 12.3026C101.818 12.1934 101.378 11.9567 100.975 11.6473C100.571 11.3378 100.351 10.8827 100.351 10.3365C100.351 9.69939 100.626 9.18967 101.195 8.80738C101.763 8.40688 102.423 8.22484 103.193 8.22484C103.835 8.22484 104.403 8.37047 104.898 8.66174C105.393 8.95301 105.76 9.35351 105.962 9.89964L104.788 10.373C104.532 9.7358 103.981 9.42633 103.138 9.42633C102.735 9.42633 102.405 9.51692 102.13 9.68119C101.856 9.84546 101.727 10.0635 101.727 10.3547C101.727 10.7552 102.038 11.0465 102.68 11.1921L104.11 11.5198C104.789 11.6837 105.284 11.9385 105.614 12.3208C105.944 12.7031 106.09 13.1218 106.09 13.5951C106.09 14.2323 105.834 14.7784 105.302 15.1971C104.789 15.5612 104.11 15.7796 103.267 15.7796H103.266Z" fill="#212328"/>
	</symbol>

	<symbol id="map-control-up" viewBox="0 0 24 24" fill="none">
		<path d="M6 12H12M12 12H18M12 12V6M12 12V18" stroke="#ffffff" stroke-width="2" stroke-linecap="round" stroke-linejoin="round"/>
	</symbol>

	<symbol id="map-control-down" viewBox="0 0 24 24" fill="none">
		<path d="M6 12H18" stroke="#ffffff" stroke-width="2" stroke-linecap="round" stroke-linejoin="round"/>
	</symbol>
</svg>
